<svg width="14" height="26" viewBox="0 0 14 26" fill="none" xmlns="http://www.w3.org/2000/svg">
<path d="M0.895631 13.6177H3.6176V24.8236C3.6176 25.0448 3.79687 25.2241 4.01812 25.2241H8.63332C8.85456 25.2241 9.03383 25.0448 9.03383 24.8236V13.6705H12.163C12.3664 13.6705 12.5376 13.5178 12.5608 13.3157L13.0361 9.19025C13.0491 9.07674 13.0132 8.96308 12.9372 8.87793C12.8612 8.7927 12.7524 8.74392 12.6383 8.74392H9.03399V6.15788C9.03399 5.37832 9.45373 4.98301 10.2817 4.98301C10.3997 4.98301 12.6383 4.98301 12.6383 4.98301C12.8595 4.98301 13.0388 4.80366 13.0388 4.5825V0.79572C13.0388 0.574476 12.8595 0.395206 12.6383 0.395206H9.39053C9.36762 0.394085 9.31675 0.392242 9.24178 0.392242C8.67825 0.392242 6.7195 0.502864 5.17224 1.92629C3.45788 3.50367 3.69618 5.39234 3.75314 5.7198V8.74384H0.895631C0.674387 8.74384 0.495117 8.92311 0.495117 9.14435V13.2171C0.495117 13.4383 0.674387 13.6177 0.895631 13.6177Z" fill="#CF7C00"/>
</svg>
