<svg width="25" height="25" viewBox="0 0 25 25" fill="none" xmlns="http://www.w3.org/2000/svg">
<path d="M17.0631 0.317291H7.40189C3.47549 0.317291 0.281128 3.51165 0.281128 7.43806V17.0993C0.281128 21.0257 3.47549 24.2201 7.40189 24.2201H17.0631C20.9895 24.2201 24.1839 21.0257 24.1839 17.0993V7.43806C24.1839 3.51165 20.9895 0.317291 17.0631 0.317291ZM21.7793 17.0993C21.7793 19.7039 19.6678 21.8154 17.0631 21.8154H7.40189C4.79726 21.8154 2.68575 19.7039 2.68575 17.0993V7.43806C2.68575 4.83338 4.79726 2.72191 7.40189 2.72191H17.0631C19.6678 2.72191 21.7793 4.83338 21.7793 7.43806V17.0993Z" fill="#CF7C00"/>
<path d="M12.2325 6.08643C8.8237 6.08643 6.05042 8.85971 6.05042 12.2685C6.05042 15.6773 8.8237 18.4506 12.2325 18.4506C15.6413 18.4506 18.4146 15.6773 18.4146 12.2685C18.4146 8.85967 15.6413 6.08643 12.2325 6.08643ZM12.2325 16.046C10.1463 16.046 8.45503 14.3548 8.45503 12.2685C8.45503 10.1823 10.1463 8.49104 12.2325 8.49104C14.3188 8.49104 16.01 10.1823 16.01 12.2685C16.01 14.3548 14.3187 16.046 12.2325 16.046Z" fill="#CF7C00"/>
<path d="M18.4264 7.61437C19.2445 7.61437 19.9077 6.95116 19.9077 6.13305C19.9077 5.31494 19.2445 4.65173 18.4264 4.65173C17.6083 4.65173 16.9451 5.31494 16.9451 6.13305C16.9451 6.95116 17.6083 7.61437 18.4264 7.61437Z" fill="#CF7C00"/>
</svg>
