<svg width="24" height="24" viewBox="0 0 24 24" fill="none" xmlns="http://www.w3.org/2000/svg">
<path d="M22.8464 23.1281L23.9714 18.2532C24.0932 17.7236 23.8167 17.1798 23.3198 16.9642L18.0699 14.7142C17.6106 14.5174 17.0715 14.6486 16.7575 15.0377L14.4325 17.8782C10.8373 16.1908 7.8467 13.2424 6.12642 9.57217L8.96699 7.24722C9.35604 6.92847 9.48729 6.39411 9.29042 5.93474L7.04047 0.684849C6.82016 0.183297 6.27642 -0.0932599 5.74674 0.0286127L0.871841 1.15359C0.365602 1.27077 -1.71661e-05 1.72077 -1.71661e-05 2.25044C-1.71661e-05 14.2549 9.72635 24 21.7495 24C22.2745 24 22.7292 23.6391 22.8464 23.1281Z" fill="#CF7C00"/>
</svg>
