<svg width="24" height="24" viewBox="0 0 24 24" fill="none" xmlns="http://www.w3.org/2000/svg">
<path d="M6.37668 19.6105L7.22355 20.1053C8.65169 20.9382 10.276 21.3754 11.9293 21.3721C13.7801 21.3721 15.5893 20.8232 17.1281 19.795C18.667 18.7668 19.8664 17.3053 20.5746 15.5954C21.2829 13.8855 21.4682 12.004 21.1072 10.1888C20.7461 8.37358 19.8549 6.7062 18.5462 5.39751C17.2375 4.08881 15.5701 3.19758 13.7549 2.83651C11.9397 2.47545 10.0581 2.66076 8.34826 3.36902C6.63837 4.07728 5.1769 5.27668 4.14866 6.81554C3.12043 8.3544 2.57161 10.1636 2.57161 12.0144C2.57161 13.6941 3.01259 15.3048 3.83958 16.7213L4.33319 17.5682L3.56937 20.3766L6.37668 19.6105ZM0.236872 23.7115L1.81832 17.9004C0.776269 16.114 0.228797 14.0824 0.232193 12.0144C0.232193 5.55408 5.46898 0.317291 11.9293 0.317291C18.3896 0.317291 23.6264 5.55408 23.6264 12.0144C23.6264 18.4747 18.3896 23.7115 11.9293 23.7115C9.86215 23.7148 7.83139 23.1678 6.04565 22.1265L0.236872 23.7115ZM7.7078 6.52611C7.86454 6.51441 8.02246 6.51441 8.1792 6.52143C8.24236 6.52611 8.30553 6.53313 8.36869 6.54014C8.55467 6.5612 8.75937 6.67466 8.82839 6.8314C9.17696 7.62212 9.51617 8.4187 9.84369 9.21761C9.91621 9.3954 9.87294 9.6235 9.73491 9.84574C9.63998 9.99602 9.5373 10.1413 9.42728 10.2809C9.2951 10.4505 9.01086 10.7616 9.01086 10.7616C9.01086 10.7616 8.89506 10.8996 8.93951 11.0716C8.95588 11.1371 9.00969 11.2318 9.05882 11.3114L9.12783 11.4225C9.42728 11.922 9.82966 12.4285 10.3209 12.9057C10.4613 13.0414 10.5982 13.1806 10.7455 13.3104C11.293 13.7935 11.9129 14.1877 12.582 14.4801L12.5878 14.4825C12.6873 14.5257 12.7376 14.5491 12.8826 14.6111C12.9551 14.6415 13.03 14.6685 13.106 14.6883C13.1846 14.7083 13.2673 14.7046 13.3437 14.6775C13.4202 14.6504 13.4868 14.6013 13.5353 14.5363C14.3822 13.5104 14.4594 13.4438 14.4664 13.4438V13.4461C14.5252 13.3912 14.5951 13.3496 14.6714 13.324C14.7476 13.2983 14.8285 13.2893 14.9085 13.2976C14.9787 13.3022 15.0501 13.3151 15.1156 13.3443C15.7367 13.6286 16.7532 14.0719 16.7532 14.0719L17.4339 14.3772C17.5486 14.4322 17.6527 14.562 17.6562 14.6872C17.6609 14.7655 17.6679 14.8919 17.641 15.1235C17.6035 15.4264 17.5123 15.7902 17.4211 15.9809C17.3586 16.111 17.2757 16.2302 17.1754 16.3341C17.0574 16.458 16.9282 16.5708 16.7894 16.671C16.7414 16.7071 16.6927 16.7422 16.6432 16.7763C16.4977 16.8686 16.3482 16.9544 16.1952 17.0336C15.8941 17.1936 15.5614 17.2854 15.2208 17.3026C15.0044 17.3143 14.7881 17.3307 14.5705 17.319C14.5611 17.319 13.9061 17.2172 13.9061 17.2172C12.2431 16.7798 10.7051 15.9604 9.41441 14.824C9.15006 14.5913 8.90559 14.3409 8.65527 14.0918C7.61423 13.0566 6.82818 11.9395 6.35094 10.8844C6.10667 10.3666 5.97472 9.80293 5.96377 9.23047C5.95895 8.52029 6.1911 7.82877 6.62348 7.26536C6.70887 7.15541 6.78958 7.04078 6.92878 6.9086C7.07733 6.76824 7.17091 6.69338 7.27267 6.64191C7.40798 6.5741 7.55558 6.53432 7.70663 6.52494L7.7078 6.52611Z" fill="#CF7C00"/>
</svg>
